<svg viewBox="0 0 24 24" fill="none" xmlns="http://www.w3.org/2000/svg">
  <!-- Energy meter housing -->
  <rect x="4" y="6" width="16" height="12" rx="2" stroke="currentColor" stroke-width="1.5" fill="none"/>

  <!-- Meter dial/gauge background -->
  <circle cx="12" cy="12" r="4" stroke="currentColor" stroke-width="1" fill="currentColor" opacity="0.1"/>

  <!-- Gauge markings -->
  <line x1="8.5" y1="9.5" x2="9" y2="10" stroke="currentColor" stroke-width="0.8"/>
  <line x1="15.5" y1="9.5" x2="15" y2="10" stroke="currentColor" stroke-width="0.8"/>
  <line x1="8.5" y1="14.5" x2="9" y2="14" stroke="currentColor" stroke-width="0.8"/>
  <line x1="15.5" y1="14.5" x2="15" y2="14" stroke="currentColor" stroke-width="0.8"/>

  <!-- Meter needle pointing to accumulated total -->
  <line x1="12" y1="12" x2="14.5" y2="10.5" stroke="currentColor" stroke-width="1.2" stroke-linecap="round"/>
  <circle cx="12" cy="12" r="1" fill="currentColor"/>

  <!-- Digital display showing total -->
  <rect x="6" y="15" width="12" height="2" rx="0.5" fill="currentColor" opacity="0.3"/>
  <text x="12" y="16.3" font-family="monospace" font-size="2" text-anchor="middle" fill="currentColor" opacity="0.8">kWh</text>

  <!-- External data indicator -->
  <circle cx="18" cy="6" r="1.5" fill="currentColor" opacity="0.6"/>
  <path d="M18 4.5L19.5 6L18 7.5L16.5 6Z" fill="white" opacity="0.9"/>

  <!-- Cumulative indicator - stepped bars showing accumulation -->
  <rect x="2" y="20" width="1.5" height="2" fill="currentColor" opacity="0.4"/>
  <rect x="4" y="19" width="1.5" height="3" fill="currentColor" opacity="0.5"/>
  <rect x="6" y="18" width="1.5" height="4" fill="currentColor" opacity="0.6"/>
  <rect x="8" y="17" width="1.5" height="5" fill="currentColor" opacity="0.7"/>

  <!-- Sigma symbol for total -->
  <text x="21" y="21" font-family="serif" font-size="3" fill="currentColor" opacity="0.5">Σ</text>
</svg>